<svg xmlns="http://www.w3.org/2000/svg" version="1.1" x="0" y="0" width="424.96" height="72.57" viewBox="0 0 424.96 72.57" enable-background="new 0 0 424.96 72.567" xml:space="preserve"><path fill="#FFFFFF" d="M60.46 39.03l11.5-2.82 -11.41-2.73c-1.11-11.51-10.21-20.68-21.68-21.91L36.04 0l-2.78 11.62c-11.3 1.37-20.22 10.45-21.34 21.82L0 36.35l12.03 2.88c1.49 10.8 10.03 19.35 20.83 20.84l3.06 12.5 2.97-12.41C50.09 58.94 59.02 50.16 60.46 39.03zM64.06 35.51v0.7h-3.4c0-0.12 0.01-0.23 0.01-0.35 0-0.37-0.01-0.74-0.03-1.1L64.06 35.51zM40.27 34.85l8.09-2.78 10.43 2.29c0.03 0.5 0.06 1 0.06 1.51 0 0.12-0.01 0.23-0.01 0.35H40.38c0.01-0.12 0.02-0.23 0.02-0.35C40.4 35.52 40.35 35.18 40.27 34.85zM58.66 33.04l-10.4-2.49 -8.44 3.2c-0.36-0.6-0.86-1.11-1.46-1.46l3.46-8.69L39.34 13.47C49.43 14.86 57.4 22.9 58.66 33.04zM36.04 31.71c-0.44 0.02-0.87 0.11-1.27 0.26l-2.88-8.37 2.25-10.24c0.63-0.06 1.26-0.09 1.9-0.09V31.71zM36.23 40.03c0.25 0 0.5-0.03 0.74-0.07l3.1 9.01 -2.07 9.43c-0.58 0.05-1.17 0.08-1.77 0.08 -0.1 0-0.21-0.01-0.31-0.01V40.02C36.02 40.02 36.13 40.03 36.23 40.03zM35.34 7.9h0.7v3.54c-0.5 0-1 0.03-1.49 0.06L35.34 7.9zM32.81 13.51l-2.44 10.19 3.36 8.84c-0.54 0.41-0.98 0.94-1.27 1.56l-8.86-3.53 -9.79 2.4C15.09 22.98 22.89 15.02 32.81 13.51zM32.39 37.48L23.6 40.5l-9.84-2.16c-0.07-0.65-0.11-1.32-0.12-1.99h18.47C32.14 36.75 32.24 37.12 32.39 37.48zM7.9 37.06v-0.7h3.91c0.01 0.53 0.04 1.06 0.08 1.58L7.9 37.06zM13.95 39.69l9.75 2.33 9.3-3.53c0.35 0.44 0.79 0.8 1.3 1.06h-0.4l-3.75 9.42 2.25 9.18C22.98 56.54 15.55 49.11 13.95 39.69zM36.63 64.67h-0.7v-4.37c0.1 0 0.21 0.01 0.31 0.01 0.46 0 0.91-0.01 1.36-0.04L36.63 64.67zM39.34 58.26l2.25-9.39 -3.52-9.27c0.55-0.27 1.04-0.66 1.42-1.14l8.88 3.53 10.19-2.49C56.98 49.25 49.17 56.91 39.34 58.26zM73.57 33.28c0-6.08 0-7.18-0.08-8.42 -0.08-1.33-0.39-1.95-1.68-2.22 -0.31-0.08-0.97-0.12-1.33-0.12 -0.16 0-0.31-0.08-0.31-0.23 0-0.23 0.2-0.31 0.62-0.31 0.9 0 1.95 0 2.81 0.04l1.6 0.08c0.27 0 8.03 0 8.93-0.04 0.74-0.04 1.37-0.12 1.68-0.19 0.19-0.04 0.35-0.19 0.55-0.19 0.12 0 0.16 0.16 0.16 0.35 0 0.27-0.19 0.74-0.31 1.83 -0.04 0.39-0.12 2.11-0.19 2.57 -0.04 0.2-0.12 0.43-0.27 0.43 -0.23 0-0.31-0.19-0.31-0.51 0-0.27-0.04-0.94-0.23-1.4 -0.27-0.62-0.66-1.09-2.77-1.33 -0.66-0.08-4.91-0.12-5.34-0.12 -0.16 0-0.23 0.12-0.23 0.39V34.65c0 0.27 0.04 0.39 0.23 0.39 0.51 0 5.3 0 6.2-0.08 0.94-0.08 1.48-0.16 1.83-0.55 0.27-0.31 0.43-0.51 0.59-0.51 0.12 0 0.2 0.08 0.2 0.31s-0.19 0.9-0.31 2.18c-0.08 0.78-0.16 2.22-0.16 2.5 0 0.31 0 0.74-0.27 0.74 -0.19 0-0.27-0.16-0.27-0.35 0-0.39 0-0.78-0.16-1.29 -0.15-0.55-0.51-1.21-2.03-1.36 -1.05-0.12-4.91-0.19-5.58-0.19 -0.19 0-0.27 0.12-0.27 0.27v3.43c0 1.33-0.04 5.85 0 6.67 0.12 2.69 0.7 3.2 4.52 3.2 1.01 0 2.73 0 3.74-0.43 1.01-0.43 1.48-1.21 1.76-2.81 0.08-0.43 0.16-0.58 0.35-0.58 0.23 0 0.23 0.31 0.23 0.59 0 0.31-0.31 2.96-0.51 3.78 -0.27 1.01-0.58 1.01-2.11 1.01 -2.92 0-5.07-0.08-6.59-0.12 -1.52-0.08-2.46-0.12-3.04-0.12 -0.08 0-0.74 0-1.56 0.04 -0.78 0-1.68 0.08-2.26 0.08 -0.43 0-0.62-0.08-0.62-0.31 0-0.12 0.08-0.23 0.31-0.23 0.35 0 0.82-0.08 1.17-0.16 0.78-0.16 0.98-1.01 1.13-2.14 0.2-1.64 0.2-4.72 0.2-8.46V33.28zM109.95 48.8c0.07 0.72 0.22 1.82 1.08 2.11 0.6 0.19 1.15 0.19 1.37 0.19 0.1 0 0.17 0.05 0.17 0.14 0 0.12-0.19 0.19-0.43 0.19 -0.48 0-2.83-0.02-3.6-0.1 -0.5-0.05-0.6-0.12-0.6-0.22 0-0.07 0.05-0.14 0.14-0.17 0.12-0.02 0.14-0.34 0.1-0.72l-1.01-10.37h-0.05l-5.09 10.42c-0.43 0.89-0.55 1.08-0.74 1.08s-0.31-0.19-0.72-0.94c-0.55-1.01-1.94-3.62-2.47-4.73 -0.62-1.3-2.33-4.73-2.69-5.57h-0.1l-0.82 9.22c-0.02 0.31-0.02 0.7-0.02 1.03 0 0.31 0.19 0.5 0.5 0.58 0.36 0.1 0.67 0.12 0.82 0.12 0.07 0 0.17 0.07 0.17 0.14 0 0.14-0.14 0.19-0.38 0.19 -0.79 0-1.8-0.07-1.97-0.07 -0.19 0-1.2 0.07-1.78 0.07 -0.22 0-0.36-0.05-0.36-0.19 0-0.07 0.1-0.14 0.22-0.14 0.17 0 0.31-0.02 0.62-0.07 0.7-0.12 0.72-0.86 0.82-1.63l1.54-13.32c0.02-0.22 0.12-0.36 0.24-0.36 0.14 0 0.31 0.07 0.43 0.31l6.38 12.67 6.15-12.65c0.1-0.19 0.19-0.34 0.34-0.34 0.14 0 0.27 0.17 0.31 0.55L109.95 48.8zM131.65 48.8c0.07 0.72 0.22 1.82 1.08 2.11 0.6 0.19 1.15 0.19 1.37 0.19 0.1 0 0.17 0.05 0.17 0.14 0 0.12-0.19 0.19-0.43 0.19 -0.48 0-2.83-0.02-3.6-0.1 -0.5-0.05-0.6-0.12-0.6-0.22 0-0.07 0.05-0.14 0.14-0.17 0.12-0.02 0.14-0.34 0.1-0.72l-1.01-10.37h-0.05l-5.09 10.42c-0.43 0.89-0.55 1.08-0.74 1.08s-0.31-0.19-0.72-0.94c-0.55-1.01-1.94-3.62-2.47-4.73 -0.62-1.3-2.33-4.73-2.69-5.57h-0.1l-0.82 9.22c-0.02 0.31-0.02 0.7-0.02 1.03 0 0.31 0.19 0.5 0.5 0.58 0.36 0.1 0.67 0.12 0.82 0.12 0.07 0 0.17 0.07 0.17 0.14 0 0.14-0.14 0.19-0.38 0.19 -0.79 0-1.8-0.07-1.97-0.07 -0.19 0-1.2 0.07-1.78 0.07 -0.22 0-0.36-0.05-0.36-0.19 0-0.07 0.1-0.14 0.22-0.14 0.17 0 0.31-0.02 0.62-0.07 0.7-0.12 0.72-0.86 0.82-1.63l1.54-13.32c0.02-0.22 0.12-0.36 0.24-0.36 0.14 0 0.31 0.07 0.43 0.31l6.38 12.67 6.15-12.65c0.1-0.19 0.19-0.34 0.34-0.34 0.14 0 0.27 0.17 0.31 0.55L131.65 48.8zM141.17 36.39c0.26-0.67 0.36-0.79 0.5-0.79 0.22 0 0.29 0.29 0.5 0.74 0.39 0.86 3.77 9.29 5.06 12.39 0.77 1.82 1.35 2.09 1.8 2.23 0.31 0.1 0.62 0.12 0.84 0.12 0.12 0 0.26 0.05 0.26 0.17 0 0.12-0.24 0.17-0.48 0.17 -0.31 0-1.87 0-3.34-0.05 -0.41-0.02-0.74-0.02-0.74-0.14 0-0.1 0.05-0.1 0.14-0.14 0.12-0.05 0.34-0.22 0.19-0.55l-1.9-4.68c-0.05-0.1-0.07-0.12-0.19-0.12h-4.87c-0.1 0-0.17 0.05-0.22 0.17l-1.2 3.26c-0.19 0.5-0.31 1.01-0.31 1.37 0 0.41 0.36 0.55 0.72 0.55h0.19c0.17 0 0.22 0.07 0.22 0.17 0 0.12-0.12 0.17-0.31 0.17 -0.5 0-1.66-0.07-1.9-0.07 -0.22 0-1.27 0.07-2.14 0.07 -0.26 0-0.41-0.05-0.41-0.17 0-0.1 0.1-0.17 0.19-0.17 0.14 0 0.46-0.02 0.62-0.05 0.96-0.12 1.37-0.84 1.78-1.87L141.17 36.39zM143.52 44.89c0.1 0 0.1-0.05 0.07-0.14l-2.09-5.59c-0.12-0.31-0.24-0.31-0.36 0l-1.97 5.59c-0.02 0.1 0 0.14 0.07 0.14H143.52zM153.34 48.63c0.05 1.68 0.24 2.19 0.82 2.33 0.38 0.1 0.86 0.12 1.06 0.12 0.1 0 0.17 0.07 0.17 0.17 0 0.12-0.14 0.17-0.38 0.17 -1.2 0-2.04-0.07-2.23-0.07 -0.19 0-1.08 0.07-2.04 0.07 -0.22 0-0.34-0.02-0.34-0.17 0-0.1 0.07-0.17 0.17-0.17 0.17 0 0.55-0.02 0.86-0.12 0.53-0.14 0.6-0.7 0.6-2.54V36.73c0-0.82 0.12-1.03 0.29-1.03 0.24 0 0.6 0.41 0.82 0.62 0.34 0.34 3.41 3.6 6.67 6.96 2.09 2.16 4.34 4.58 4.99 5.26l-0.22-10.22c-0.02-1.32-0.14-1.78-0.79-1.9 -0.38-0.07-0.86-0.1-1.03-0.1 -0.14 0-0.17-0.12-0.17-0.19 0-0.12 0.17-0.14 0.41-0.14 0.96 0 1.97 0.05 2.21 0.05 0.24 0 0.94-0.05 1.8-0.05 0.22 0 0.38 0.02 0.38 0.14 0 0.07-0.1 0.19-0.24 0.19 -0.1 0-0.26 0-0.5 0.05 -0.69 0.14-0.74 0.55-0.74 1.78l-0.05 11.95c0 1.34-0.02 1.46-0.17 1.46 -0.22 0-0.43-0.17-1.61-1.25 -0.22-0.19-3.26-3.19-5.5-5.52 -2.45-2.57-4.82-5.06-5.47-5.78L153.34 48.63zM170.88 41.89c0-3.17 0-3.74-0.05-4.39 -0.05-0.65-0.17-1.03-0.86-1.13 -0.17-0.02-0.53-0.05-0.72-0.05 -0.07 0-0.17-0.1-0.17-0.17 0-0.12 0.1-0.17 0.34-0.17 0.96 0 2.23 0.05 2.42 0.05 0.19 0 1.51-0.05 2.14-0.05 0.24 0 0.36 0.05 0.36 0.17 0 0.07-0.1 0.17-0.19 0.17 -0.14 0-0.26 0-0.53 0.05 -0.55 0.1-0.67 0.46-0.72 1.13 -0.05 0.65-0.05 1.22-0.05 4.39v2.86c0 2.95 0.65 4.18 1.56 4.99 1.03 0.94 1.94 1.1 3.14 1.1 1.3 0 2.55-0.58 3.27-1.44 0.98-1.18 1.2-2.86 1.2-4.94v-2.57c0-3.17-0.02-3.74-0.05-4.39 -0.02-0.65-0.14-1.03-0.84-1.13 -0.17-0.02-0.53-0.05-0.72-0.05 -0.1 0-0.17-0.1-0.17-0.17 0-0.12 0.1-0.17 0.34-0.17 0.94 0 2.16 0.05 2.28 0.05 0.14 0 1.15-0.05 1.78-0.05 0.24 0 0.34 0.05 0.34 0.17 0 0.07-0.07 0.17-0.17 0.17 -0.14 0-0.26 0-0.53 0.05 -0.58 0.12-0.7 0.46-0.74 1.13 -0.05 0.65-0.02 1.22-0.02 4.39v2.19c0 2.21-0.29 4.68-1.97 6.12 -1.54 1.32-3.17 1.49-4.42 1.49 -0.7 0-2.9-0.05-4.39-1.44 -1.03-0.96-1.85-2.38-1.85-5.35V41.89zM189.05 41.89c0-3.17 0-3.74-0.05-4.39 -0.05-0.7-0.17-1.03-0.86-1.13 -0.17-0.02-0.53-0.05-0.72-0.05 -0.07 0-0.17-0.1-0.17-0.17 0-0.12 0.1-0.17 0.34-0.17 0.96 0 2.33 0.05 2.45 0.05 0.14 0 4.56 0.02 5.04 0 0.41-0.02 0.79-0.1 0.96-0.12 0.1-0.02 0.19-0.1 0.29-0.1 0.07 0 0.1 0.1 0.1 0.19 0 0.14-0.12 0.38-0.17 0.96 -0.02 0.19-0.07 1.1-0.12 1.34 -0.02 0.1-0.1 0.22-0.19 0.22 -0.12 0-0.17-0.1-0.17-0.26 0-0.14-0.02-0.48-0.12-0.72 -0.14-0.34-0.36-0.48-1.51-0.62 -0.36-0.05-2.81-0.07-3.05-0.07 -0.1 0-0.12 0.07-0.12 0.22v5.54c0 0.14 0 0.22 0.12 0.22 0.26 0 3.05 0 3.53-0.05 0.5-0.05 0.82-0.07 1.03-0.29 0.14-0.14 0.24-0.26 0.31-0.26s0.12 0.05 0.12 0.17c0 0.12-0.12 0.46-0.17 1.13 -0.05 0.41-0.1 1.18-0.1 1.32 0 0.17-0.05 0.38-0.19 0.38 -0.1 0-0.14-0.07-0.14-0.19 0-0.19 0-0.41-0.1-0.67 -0.07-0.29-0.26-0.53-1.08-0.62 -0.58-0.07-2.83-0.1-3.19-0.1 -0.12 0-0.14 0.07-0.14 0.14v1.7c0 0.7-0.02 3.07 0 3.48 0.05 1.37 0.43 1.63 2.52 1.63 0.55 0 1.56 0 2.11-0.22 0.55-0.24 0.84-0.6 0.96-1.42 0.05-0.24 0.1-0.31 0.22-0.31s0.14 0.17 0.14 0.31c0 0.14-0.17 1.54-0.29 1.97 -0.14 0.53-0.36 0.53-1.18 0.53 -1.58 0-2.81-0.05-3.67-0.07 -0.89-0.05-1.44-0.05-1.75-0.05 -0.05 0-0.46 0-0.91 0.02 -0.41 0.02-0.89 0.05-1.22 0.05 -0.22 0-0.34-0.05-0.34-0.17 0-0.07 0.05-0.17 0.17-0.17 0.19 0 0.46-0.07 0.65-0.1 0.41-0.07 0.46-0.48 0.55-1.08 0.12-0.84 0.12-2.45 0.12-4.42V41.89zM203.72 45.53c0 3 0.05 4.22 0.43 4.58 0.34 0.34 1.15 0.48 2.81 0.48 1.1 0 2.04-0.02 2.54-0.62 0.27-0.31 0.43-0.74 0.5-1.15 0.02-0.14 0.1-0.26 0.22-0.26 0.1 0 0.14 0.1 0.14 0.31 0 0.22-0.14 1.44-0.31 2.04 -0.14 0.48-0.22 0.55-1.34 0.55 -1.51 0-2.69-0.02-3.67-0.07 -0.96-0.02-1.68-0.05-2.31-0.05 -0.1 0-0.46 0-0.86 0.02 -0.43 0.02-0.89 0.05-1.22 0.05 -0.22 0-0.34-0.05-0.34-0.17 0-0.07 0.05-0.17 0.17-0.17 0.19 0 0.46-0.05 0.65-0.1 0.41-0.1 0.46-0.48 0.55-1.08 0.12-0.84 0.12-2.45 0.12-4.42v-3.6c0-3.17 0-3.74-0.05-4.39 -0.05-0.7-0.17-1.03-0.86-1.13 -0.17-0.02-0.53-0.05-0.72-0.05 -0.07 0-0.17-0.1-0.17-0.17 0-0.12 0.1-0.17 0.34-0.17 0.96 0 2.28 0.05 2.4 0.05 0.1 0 1.68-0.05 2.33-0.05 0.22 0 0.34 0.05 0.34 0.17 0 0.07-0.1 0.14-0.17 0.14 -0.14 0-0.46 0.02-0.69 0.05 -0.62 0.12-0.74 0.43-0.79 1.15 -0.02 0.65-0.02 1.22-0.02 4.39V45.53zM222.03 40.23c0-3.74 0-4.42-0.05-5.18 -0.05-0.82-0.24-1.2-1.03-1.37 -0.19-0.05-0.6-0.07-0.82-0.07 -0.1 0-0.19-0.05-0.19-0.14 0-0.14 0.12-0.19 0.38-0.19 1.08 0 2.59 0.07 2.71 0.07 0.58 0 1.51-0.07 2.62-0.07 3.94 0 4.8 2.4 4.8 3.6 0 1.97-1.13 3.14-2.26 4.32 1.78 0.55 4.15 2.26 4.15 5.06 0 2.57-2.02 5.23-6.12 5.23 -0.26 0-1.03-0.05-1.73-0.07 -0.69-0.05-1.37-0.07-1.46-0.07 -0.05 0-0.46 0-0.96 0.02 -0.48 0-1.03 0.05-1.39 0.05 -0.26 0-0.38-0.05-0.38-0.19 0-0.07 0.05-0.14 0.19-0.14 0.22 0 0.5-0.05 0.72-0.1 0.48-0.1 0.6-0.62 0.7-1.32 0.12-1.01 0.12-2.9 0.12-5.21V40.23zM223.95 40.76c0 0.17 0.05 0.22 0.17 0.26 0.14 0.02 0.58 0.1 1.46 0.1 1.35 0 1.68-0.05 2.19-0.62 0.5-0.58 0.86-1.44 0.86-2.42 0-1.99-0.89-4.13-3.24-4.13 -0.26 0-0.77 0.02-1.15 0.12 -0.22 0.05-0.29 0.12-0.29 0.26V40.76zM223.95 43.3c0 1.85 0 4.82 0.02 5.18 0.07 1.18 0.07 1.51 0.82 1.87 0.65 0.31 1.68 0.36 2.11 0.36 1.3 0 3.39-0.7 3.39-3.41 0-1.44-0.48-3.53-2.33-4.8 -0.82-0.55-1.42-0.62-1.99-0.7 -0.31-0.05-1.51-0.05-1.87-0.05 -0.1 0-0.14 0.05-0.14 0.17V43.3zM240.56 36.39c0.26-0.67 0.36-0.79 0.5-0.79 0.22 0 0.29 0.29 0.5 0.74 0.39 0.86 3.77 9.29 5.06 12.39 0.77 1.82 1.35 2.09 1.8 2.23 0.31 0.1 0.62 0.12 0.84 0.12 0.12 0 0.26 0.05 0.26 0.17 0 0.12-0.24 0.17-0.48 0.17 -0.31 0-1.87 0-3.34-0.05 -0.41-0.02-0.74-0.02-0.74-0.14 0-0.1 0.05-0.1 0.14-0.14 0.12-0.05 0.34-0.22 0.19-0.55l-1.9-4.68c-0.05-0.1-0.07-0.12-0.19-0.12h-4.87c-0.1 0-0.17 0.05-0.22 0.17l-1.2 3.26c-0.19 0.5-0.31 1.01-0.31 1.37 0 0.41 0.36 0.55 0.72 0.55h0.19c0.17 0 0.22 0.07 0.22 0.17 0 0.12-0.12 0.17-0.31 0.17 -0.5 0-1.66-0.07-1.9-0.07 -0.22 0-1.27 0.07-2.14 0.07 -0.26 0-0.41-0.05-0.41-0.17 0-0.1 0.1-0.17 0.19-0.17 0.14 0 0.46-0.02 0.62-0.05 0.96-0.12 1.37-0.84 1.78-1.87L240.56 36.39zM242.91 44.89c0.1 0 0.1-0.05 0.07-0.14l-2.09-5.59c-0.12-0.31-0.24-0.31-0.36 0l-1.97 5.59c-0.02 0.1 0 0.14 0.07 0.14H242.91zM251.84 41.89c0-3.17 0-3.74-0.05-4.39 -0.05-0.7-0.17-1.03-0.86-1.13 -0.17-0.02-0.53-0.05-0.72-0.05 -0.07 0-0.17-0.1-0.17-0.17 0-0.12 0.1-0.17 0.34-0.17 0.96 0 2.28 0.05 2.45 0.05 0.46 0 2.04-0.05 3-0.05 2.71 0 3.67 0.84 4.03 1.15 0.48 0.43 1.06 1.34 1.06 2.45 0 2.93-2.21 4.87-5.45 4.87 -0.12 0-0.48 0-0.6-0.02 -0.1 0-0.22-0.1-0.22-0.19 0-0.17 0.12-0.22 0.55-0.22 2.28 0 3.91-1.44 3.91-3.29 0-0.67-0.07-1.99-1.2-3.1 -1.1-1.1-2.38-0.98-2.86-0.98 -0.36 0-0.96 0.1-1.18 0.14 -0.12 0.02-0.17 0.17-0.17 0.38v8.31c0 1.97 0 3.58 0.1 4.42 0.07 0.6 0.19 0.98 0.84 1.08 0.29 0.05 0.74 0.1 0.94 0.1 0.12 0 0.17 0.1 0.17 0.17 0 0.1-0.1 0.17-0.34 0.17 -1.15 0-2.54-0.07-2.64-0.07 -0.07 0-1.44 0.07-2.09 0.07 -0.22 0-0.34-0.05-0.34-0.17 0-0.07 0.05-0.17 0.17-0.17 0.19 0 0.46-0.05 0.65-0.1 0.41-0.1 0.46-0.48 0.55-1.08 0.12-0.84 0.12-2.45 0.12-4.42V41.89zM270.03 45.49c0 1.97 0 3.58 0.1 4.42 0.07 0.6 0.17 0.98 0.82 1.08 0.29 0.05 0.77 0.1 0.96 0.1 0.14 0 0.17 0.1 0.17 0.17 0 0.1-0.1 0.17-0.34 0.17 -1.15 0-2.5-0.07-2.62-0.07 -0.1 0-1.56 0.07-2.18 0.07 -0.24 0-0.34-0.05-0.34-0.17 0-0.07 0.05-0.14 0.17-0.14 0.19 0 0.43-0.05 0.62-0.1 0.43-0.1 0.55-0.5 0.62-1.1 0.1-0.84 0.1-2.45 0.1-4.42v-8.57l-3.05 0.05c-1.32 0.02-1.82 0.17-2.14 0.65 -0.24 0.36-0.26 0.5-0.34 0.65 -0.05 0.17-0.12 0.19-0.22 0.19 -0.05 0-0.14-0.05-0.14-0.17 0-0.22 0.41-2.04 0.46-2.21 0.02-0.12 0.14-0.38 0.22-0.38 0.14 0 0.36 0.17 0.94 0.24 0.6 0.07 1.42 0.1 1.66 0.1h7.97c0.7 0 1.18-0.05 1.51-0.1 0.31-0.05 0.5-0.1 0.6-0.1s0.1 0.12 0.1 0.24c0 0.62-0.07 2.09-0.07 2.33 0 0.17-0.1 0.26-0.19 0.26s-0.14-0.07-0.17-0.36l-0.02-0.22c-0.07-0.62-0.53-1.08-2.54-1.13l-2.64-0.05V45.49zM281.5 45.49c0 1.97 0 3.58 0.1 4.42 0.07 0.6 0.14 0.98 0.77 1.08 0.31 0.05 0.77 0.1 0.96 0.1 0.12 0 0.17 0.1 0.17 0.17 0 0.1-0.1 0.17-0.34 0.17 -1.18 0-2.54-0.07-2.64-0.07 -0.12 0-1.44 0.07-2.09 0.07 -0.22 0-0.34-0.05-0.34-0.17 0-0.07 0.05-0.17 0.17-0.17 0.19 0 0.46-0.05 0.65-0.1 0.41-0.1 0.48-0.48 0.55-1.08 0.1-0.84 0.12-2.45 0.12-4.42v-3.6c0-3.17 0-3.74-0.05-4.39 -0.05-0.7-0.22-1.01-0.67-1.1 -0.24-0.05-0.5-0.07-0.65-0.07 -0.1 0-0.17-0.1-0.17-0.17 0-0.12 0.1-0.17 0.34-0.17 0.7 0 2.02 0.05 2.14 0.05 0.1 0 1.46-0.05 2.11-0.05 0.24 0 0.34 0.05 0.34 0.17 0 0.07-0.1 0.17-0.17 0.17 -0.14 0-0.29 0-0.53 0.05 -0.58 0.12-0.69 0.41-0.74 1.13 -0.02 0.65-0.02 1.22-0.02 4.39V45.49zM286.66 51.13c-0.29-0.14-0.31-0.22-0.31-0.77 0-1.01 0.1-1.82 0.12-2.16 0-0.22 0.05-0.34 0.17-0.34s0.19 0.07 0.19 0.24 0 0.46 0.07 0.74c0.34 1.49 1.92 2.02 3.34 2.02 2.09 0 3.17-1.18 3.17-2.71 0-1.46-0.79-2.16-2.66-3.55l-0.96-0.72c-2.28-1.7-3.02-2.95-3.02-4.37 0-2.4 1.9-3.84 4.68-3.84 0.84 0 1.68 0.12 2.18 0.24 0.41 0.1 0.58 0.1 0.74 0.1s0.22 0.02 0.22 0.14c0 0.1-0.1 0.77-0.1 2.16 0 0.31-0.02 0.46-0.17 0.46 -0.14 0-0.17-0.1-0.19-0.26 -0.02-0.24-0.19-0.79-0.31-1.01 -0.14-0.24-0.84-1.01-2.74-1.01 -1.54 0-2.81 0.77-2.81 2.21 0 1.3 0.65 2.04 2.74 3.46l0.6 0.41c2.57 1.75 3.46 3.17 3.46 4.92 0 1.2-0.46 2.5-1.97 3.48 -0.89 0.58-2.21 0.72-3.36 0.72C288.75 51.68 287.52 51.54 286.66 51.13zM305.14 45.49c0 1.97 0 3.58 0.1 4.42 0.07 0.6 0.17 0.98 0.82 1.08 0.29 0.05 0.77 0.1 0.96 0.1 0.14 0 0.17 0.1 0.17 0.17 0 0.1-0.1 0.17-0.34 0.17 -1.15 0-2.5-0.07-2.62-0.07 -0.1 0-1.56 0.07-2.18 0.07 -0.24 0-0.34-0.05-0.34-0.17 0-0.07 0.05-0.14 0.17-0.14 0.19 0 0.43-0.05 0.62-0.1 0.43-0.1 0.55-0.5 0.62-1.1 0.1-0.84 0.1-2.45 0.1-4.42v-8.57l-3.05 0.05c-1.32 0.02-1.82 0.17-2.14 0.65 -0.24 0.36-0.26 0.5-0.34 0.65 -0.05 0.17-0.12 0.19-0.22 0.19 -0.05 0-0.14-0.05-0.14-0.17 0-0.22 0.41-2.04 0.46-2.21 0.02-0.12 0.14-0.38 0.22-0.38 0.14 0 0.36 0.17 0.94 0.24 0.6 0.07 1.42 0.1 1.66 0.1h7.97c0.7 0 1.18-0.05 1.51-0.1 0.31-0.05 0.5-0.1 0.6-0.1s0.1 0.12 0.1 0.24c0 0.62-0.07 2.09-0.07 2.33 0 0.17-0.1 0.26-0.19 0.26s-0.14-0.07-0.17-0.36l-0.02-0.22c-0.07-0.62-0.53-1.08-2.54-1.13l-2.64-0.05V45.49zM322.73 49.16c-2.33-2.09-2.9-4.82-2.9-7.1 0-1.61 0.55-4.42 2.69-6.55 1.44-1.44 3.62-2.57 7.32-2.57 0.96 0 2.31 0.07 3.48 0.29 0.91 0.17 1.68 0.31 2.45 0.36 0.26 0.02 0.31 0.12 0.31 0.26 0 0.19-0.07 0.48-0.12 1.34 -0.05 0.79-0.05 2.11-0.07 2.47 -0.02 0.36-0.07 0.5-0.22 0.5 -0.17 0-0.19-0.17-0.19-0.5 0-0.94-0.38-1.92-1.01-2.45 -0.84-0.72-2.69-1.37-4.8-1.37 -3.19 0-4.68 0.94-5.52 1.75 -1.75 1.68-2.16 3.82-2.16 6.26 0 4.58 3.53 8.79 8.66 8.79 1.8 0 3.22-0.22 4.18-1.2 0.5-0.53 0.82-1.58 0.89-2.02 0.05-0.26 0.1-0.36 0.24-0.36 0.12 0 0.17 0.17 0.17 0.36 0 0.17-0.29 2.26-0.53 3.07 -0.14 0.46-0.19 0.5-0.62 0.7 -0.96 0.38-2.78 0.55-4.32 0.55C327.05 51.75 324.63 50.86 322.73 49.16zM353.74 45.49c0 1.97 0.02 3.58 0.12 4.42 0.07 0.6 0.12 0.98 0.77 1.08 0.29 0.05 0.77 0.1 0.94 0.1 0.14 0 0.19 0.1 0.19 0.17 0 0.1-0.12 0.17-0.36 0.17 -1.15 0-2.5-0.07-2.62-0.07 -0.1 0-1.46 0.07-2.09 0.07 -0.24 0-0.34-0.05-0.34-0.17 0-0.07 0.05-0.17 0.17-0.17 0.19 0 0.43-0.05 0.62-0.1 0.43-0.1 0.5-0.5 0.58-1.1 0.1-0.84 0.1-2.38 0.1-4.34v-2.04c0-0.1-0.05-0.12-0.12-0.12h-8.81c-0.07 0-0.12 0.02-0.12 0.12v2.04c0 1.97 0 3.53 0.1 4.37 0.07 0.6 0.14 0.98 0.77 1.08 0.31 0.05 0.77 0.1 0.96 0.1 0.12 0 0.17 0.1 0.17 0.17 0 0.1-0.1 0.17-0.34 0.17 -1.18 0-2.52-0.07-2.62-0.07 -0.12 0-1.46 0.07-2.11 0.07 -0.22 0-0.34-0.05-0.34-0.17 0-0.07 0.05-0.17 0.17-0.17 0.19 0 0.46-0.05 0.65-0.1 0.41-0.1 0.46-0.48 0.55-1.08 0.12-0.84 0.12-2.45 0.12-4.42v-3.6c0-3.17 0-3.74-0.05-4.39 -0.05-0.7-0.17-1.03-0.86-1.13 -0.17-0.02-0.53-0.05-0.72-0.05 -0.07 0-0.17-0.1-0.17-0.17 0-0.12 0.1-0.17 0.34-0.17 0.96 0 2.31 0.05 2.42 0.05 0.1 0 1.44-0.05 2.09-0.05 0.24 0 0.34 0.05 0.34 0.17 0 0.07-0.1 0.17-0.17 0.17 -0.14 0-0.29 0-0.53 0.05 -0.58 0.12-0.69 0.41-0.74 1.13 -0.02 0.65-0.02 1.27-0.02 4.44v0.43c0 0.12 0.05 0.12 0.12 0.12h8.81c0.07 0 0.12 0 0.12-0.12v-0.43c0-3.17-0.02-3.79-0.05-4.44 -0.05-0.7-0.14-1.03-0.84-1.13 -0.17-0.02-0.53-0.05-0.72-0.05 -0.1 0-0.17-0.1-0.17-0.17 0-0.12 0.1-0.17 0.34-0.17 0.94 0 2.31 0.05 2.4 0.05 0.12 0 1.46-0.05 2.09-0.05 0.24 0 0.36 0.05 0.36 0.17 0 0.07-0.1 0.17-0.19 0.17 -0.14 0-0.26 0-0.53 0.05 -0.55 0.12-0.67 0.41-0.72 1.13 -0.05 0.65-0.05 1.22-0.05 4.39V45.49zM359.62 41.89c0-3.17 0-3.74-0.05-4.39 -0.05-0.65-0.17-1.03-0.86-1.13 -0.17-0.02-0.53-0.05-0.72-0.05 -0.07 0-0.17-0.1-0.17-0.17 0-0.12 0.1-0.17 0.34-0.17 0.96 0 2.23 0.05 2.42 0.05 0.19 0 1.51-0.05 2.14-0.05 0.24 0 0.36 0.05 0.36 0.17 0 0.07-0.1 0.17-0.19 0.17 -0.14 0-0.26 0-0.53 0.05 -0.55 0.1-0.67 0.46-0.72 1.13 -0.05 0.65-0.05 1.22-0.05 4.39v2.86c0 2.95 0.65 4.18 1.56 4.99 1.03 0.94 1.94 1.1 3.14 1.1 1.3 0 2.55-0.58 3.27-1.44 0.98-1.18 1.2-2.86 1.2-4.94v-2.57c0-3.17-0.02-3.74-0.05-4.39 -0.02-0.65-0.14-1.03-0.84-1.13 -0.17-0.02-0.53-0.05-0.72-0.05 -0.1 0-0.17-0.1-0.17-0.17 0-0.12 0.1-0.17 0.34-0.17 0.94 0 2.16 0.05 2.28 0.05 0.14 0 1.15-0.05 1.78-0.05 0.24 0 0.34 0.05 0.34 0.17 0 0.07-0.07 0.17-0.17 0.17 -0.14 0-0.26 0-0.53 0.05 -0.58 0.12-0.7 0.46-0.74 1.13 -0.05 0.65-0.02 1.22-0.02 4.39v2.19c0 2.21-0.29 4.68-1.97 6.12 -1.54 1.32-3.17 1.49-4.42 1.49 -0.7 0-2.9-0.05-4.39-1.44 -1.03-0.96-1.85-2.38-1.85-5.35V41.89zM377.79 41.89c0-3.17 0-3.74-0.05-4.39 -0.05-0.7-0.17-1.03-0.86-1.13 -0.17-0.02-0.53-0.05-0.72-0.05 -0.07 0-0.17-0.1-0.17-0.17 0-0.12 0.1-0.17 0.34-0.17 0.96 0 2.38 0.05 2.5 0.05 0.22 0 1.99-0.05 2.64-0.05 1.34 0 2.83 0.12 3.94 0.89 0.53 0.38 1.46 1.37 1.46 2.78 0 1.51-0.62 2.98-2.59 4.66 1.73 2.16 3.19 4.01 4.42 5.28 1.13 1.15 1.82 1.34 2.35 1.42 0.41 0.07 0.62 0.07 0.74 0.07s0.19 0.1 0.19 0.17c0 0.12-0.12 0.17-0.5 0.17h-1.32c-1.2 0-1.73-0.12-2.26-0.41 -0.91-0.48-1.68-1.46-2.88-3 -0.89-1.1-1.82-2.42-2.28-2.98 -0.1-0.1-0.14-0.12-0.29-0.12l-2.69-0.05c-0.1 0-0.14 0.05-0.14 0.17v0.48c0 1.97 0 3.55 0.1 4.39 0.07 0.6 0.19 0.98 0.84 1.08 0.29 0.05 0.74 0.1 0.94 0.1 0.14 0 0.17 0.1 0.17 0.17 0 0.1-0.1 0.17-0.34 0.17 -1.15 0-2.5-0.07-2.59-0.07 -0.02 0-1.44 0.07-2.09 0.07 -0.22 0-0.34-0.05-0.34-0.17 0-0.07 0.05-0.17 0.17-0.17 0.19 0 0.46-0.05 0.65-0.1 0.41-0.1 0.46-0.48 0.55-1.08 0.12-0.84 0.12-2.45 0.12-4.42V41.89zM379.61 43.61c0 0.12 0.05 0.19 0.14 0.26 0.31 0.17 1.39 0.31 2.33 0.31 0.5 0 1.08-0.02 1.58-0.36 0.72-0.48 1.27-1.56 1.27-3.12 0-2.54-1.39-4.01-3.65-4.01 -0.62 0-1.3 0.07-1.51 0.12 -0.1 0.05-0.17 0.12-0.17 0.24V43.61zM393.94 49.5c-2.06-1.78-2.57-4.1-2.57-6.05 0-1.37 0.5-3.74 2.38-5.57 1.27-1.22 3.19-2.18 6.43-2.18 0.84 0 2.04 0.07 3.07 0.24 0.79 0.14 1.46 0.29 2.16 0.31 0.22 0 0.26 0.1 0.26 0.22 0 0.17-0.05 0.41-0.1 1.15 -0.02 0.67-0.02 1.8-0.05 2.09 -0.02 0.31-0.12 0.43-0.24 0.43 -0.14 0-0.17-0.14-0.17-0.43 0-0.79-0.34-1.61-0.89-2.04 -0.74-0.62-2.28-1.13-4.15-1.13 -2.71 0-4.01 0.72-4.75 1.42 -1.56 1.44-1.9 3.26-1.9 5.33 0 3.91 3.1 7.39 7.61 7.39 1.58 0 2.64-0.12 3.48-0.96 0.46-0.46 0.74-1.32 0.82-1.7 0.05-0.22 0.07-0.29 0.22-0.29 0.1 0 0.19 0.14 0.19 0.29s-0.29 1.92-0.5 2.62c-0.12 0.38-0.17 0.46-0.53 0.6 -0.86 0.34-2.45 0.46-3.82 0.46C397.73 51.68 395.59 50.94 393.94 49.5zM423.17 45.49c0 1.97 0.02 3.58 0.12 4.42 0.07 0.6 0.12 0.98 0.77 1.08 0.29 0.05 0.77 0.1 0.94 0.1 0.14 0 0.19 0.1 0.19 0.17 0 0.1-0.12 0.17-0.36 0.17 -1.15 0-2.5-0.07-2.62-0.07 -0.1 0-1.46 0.07-2.09 0.07 -0.24 0-0.34-0.05-0.34-0.17 0-0.07 0.05-0.17 0.17-0.17 0.19 0 0.43-0.05 0.62-0.1 0.43-0.1 0.5-0.5 0.57-1.1 0.1-0.84 0.1-2.38 0.1-4.34v-2.04c0-0.1-0.05-0.12-0.12-0.12h-8.81c-0.07 0-0.12 0.02-0.12 0.12v2.04c0 1.97 0 3.53 0.1 4.37 0.07 0.6 0.14 0.98 0.77 1.08 0.31 0.05 0.77 0.1 0.96 0.1 0.12 0 0.17 0.1 0.17 0.17 0 0.1-0.1 0.17-0.34 0.17 -1.18 0-2.52-0.07-2.62-0.07 -0.12 0-1.46 0.07-2.11 0.07 -0.22 0-0.34-0.05-0.34-0.17 0-0.07 0.05-0.17 0.17-0.17 0.19 0 0.46-0.05 0.65-0.1 0.41-0.1 0.46-0.48 0.55-1.08 0.12-0.84 0.12-2.45 0.12-4.42v-3.6c0-3.17 0-3.74-0.05-4.39 -0.05-0.7-0.17-1.03-0.86-1.13 -0.17-0.02-0.53-0.05-0.72-0.05 -0.07 0-0.17-0.1-0.17-0.17 0-0.12 0.1-0.17 0.34-0.17 0.96 0 2.31 0.05 2.42 0.05 0.1 0 1.44-0.05 2.09-0.05 0.24 0 0.34 0.05 0.34 0.17 0 0.07-0.1 0.17-0.17 0.17 -0.14 0-0.29 0-0.53 0.05 -0.58 0.12-0.69 0.41-0.74 1.13 -0.02 0.65-0.02 1.27-0.02 4.44v0.43c0 0.12 0.05 0.12 0.12 0.12h8.81c0.07 0 0.12 0 0.12-0.12v-0.43c0-3.17-0.02-3.79-0.05-4.44 -0.05-0.7-0.14-1.03-0.84-1.13 -0.17-0.02-0.53-0.05-0.72-0.05 -0.1 0-0.17-0.1-0.17-0.17 0-0.12 0.1-0.17 0.34-0.17 0.94 0 2.31 0.05 2.4 0.05 0.12 0 1.46-0.05 2.09-0.05 0.24 0 0.36 0.05 0.36 0.17 0 0.07-0.1 0.17-0.19 0.17 -0.14 0-0.26 0-0.53 0.05 -0.55 0.12-0.67 0.41-0.72 1.13 -0.05 0.65-0.05 1.22-0.05 4.39V45.49z"/></svg>